<svg width="40" height="40" viewBox="0 0 40 40" fill="none" xmlns="http://www.w3.org/2000/svg">
<path d="M25.6726 12.8137C26.0912 12.3954 26.7675 12.3954 27.1861 12.8137C27.6046 13.2322 27.6046 13.9106 27.1861 14.3292L21.5172 19.9702L27.1861 25.6726C27.6046 26.0912 27.6046 26.7675 27.1861 27.1861C26.7675 27.6046 26.0912 27.6046 25.6726 27.1861L19.9703 21.5172L14.3292 27.1861C13.9107 27.6046 13.2323 27.6046 12.8138 27.1861C12.3954 26.7675 12.3954 26.0912 12.8138 25.6726L18.4836 19.9702L12.8138 14.3292C12.3954 13.9106 12.3954 13.2322 12.8138 12.8137C13.2323 12.3954 13.9107 12.3954 14.3292 12.8137L19.9703 18.4835L25.6726 12.8137Z" fill="#FF0000"/>
<circle cx="20" cy="20" r="19" stroke="#FF0000" stroke-width="2"/>
</svg>
